<svg xmlns="http://www.w3.org/2000/svg" width="395.841" height="40.3" viewBox="0 0 395.841 40.3">
  <path id="logo" d="M-178.425-11a7.95,7.95,0,0,1-2.225,5.6A7.251,7.251,0,0,1-186.175-3,7.251,7.251,0,0,1-191.7-5.4a7.95,7.95,0,0,1-2.225-5.6,7.95,7.95,0,0,1,2.225-5.6,7.251,7.251,0,0,1,5.525-2.4,7.251,7.251,0,0,1,5.525,2.4A7.95,7.95,0,0,1-178.425-11Zm3.5,11V-22h-3.5v3.757q-.294-.386-.625-.757a9.879,9.879,0,0,0-7.675-3.5A9.879,9.879,0,0,0-194.4-19a11.639,11.639,0,0,0-3.025,8A11.639,11.639,0,0,0-194.4-3,9.879,9.879,0,0,0-186.725.5,9.879,9.879,0,0,0-179.05-3q.331-.371.625-.757V0Zm29,2.8,10.45-24.8h-3.9l-6.6,16.95-7.1-18.1-7.1,18.1-6.6-16.95h-3.9l10.55,24.8,7.05-17.75Zm36.2-14.3a10.482,10.482,0,0,0-3.475-7.85,11.257,11.257,0,0,0-8.025-3.25,11.076,11.076,0,0,0-8.125,3.375,11.076,11.076,0,0,0-3.375,8.125A10.933,10.933,0,0,0-129.35-3,11.909,11.909,0,0,0-125.7-.55a12.528,12.528,0,0,0,5,.9,10.489,10.489,0,0,0,5.75-1.825,11.2,11.2,0,0,0,4.225-4.975h-4A8.088,8.088,0,0,1-117.6-4.025a7.909,7.909,0,0,1-3.625.875,7.9,7.9,0,0,1-5.1-1.85,7.5,7.5,0,0,1-2.75-4.65h19.35Zm-3.7-1.15h-15.6a7.77,7.77,0,0,1,1.05-2.575,7.642,7.642,0,0,1,6.75-3.875,7.573,7.573,0,0,1,4.975,1.8A8.084,8.084,0,0,1-113.425-12.65Zm12.639,9.517a4.91,4.91,0,0,1-1.886-3.017h-3.7q1.139,6.8,8.79,6.8A12.514,12.514,0,0,0-94.258.228,9.707,9.707,0,0,0-91.43-1.043,5.851,5.851,0,0,0-88.884-6.29a5.4,5.4,0,0,0-3.4-5.174,14.767,14.767,0,0,0-3.154-1.077q-1.671-.377-3.122-.83a8.786,8.786,0,0,1-2.431-1.137,2.467,2.467,0,0,1-1-2.177,2.393,2.393,0,0,1,1.2-2.2,5.315,5.315,0,0,1,2.807-.711,5.845,5.845,0,0,1,2.773.606A3.826,3.826,0,0,1-93.5-16.55h3.751a6.75,6.75,0,0,0-2.815-4.632A9.968,9.968,0,0,0-97.879-22.5a9.067,9.067,0,0,0-5.5,1.69,5.757,5.757,0,0,0-2.3,4.963A4.824,4.824,0,0,0-104.837-13a6.16,6.16,0,0,0,2.549,1.989,16.958,16.958,0,0,0,3.143,1.077q1.671.4,3.122.88,3.439,1.12,3.439,3.213,0,3.593-4.8,3.593A6,6,0,0,1-100.786-3.133ZM-65.875-11.1a7.646,7.646,0,0,1-2.35,5.6,7.7,7.7,0,0,1-5.65,2.35,7.7,7.7,0,0,1-5.65-2.35,7.646,7.646,0,0,1-2.35-5.6,7.7,7.7,0,0,1,2.35-5.65,7.7,7.7,0,0,1,5.65-2.35,7.7,7.7,0,0,1,5.65,2.35A7.7,7.7,0,0,1-65.875-11.1Zm3.5,0a11.076,11.076,0,0,0-3.375-8.125A11.076,11.076,0,0,0-73.875-22.6,11.076,11.076,0,0,0-82-19.225,11.076,11.076,0,0,0-85.375-11.1,10.933,10.933,0,0,0-82-3,11.18,11.18,0,0,0-73.875.35,11.18,11.18,0,0,0-65.75-3,10.933,10.933,0,0,0-62.375-11.1Zm33.9,11h3.5V-13.85a9.707,9.707,0,0,0-1.825-6.1,6.9,6.9,0,0,0-2.325-1.925,8.07,8.07,0,0,0-3.7-.725,6.678,6.678,0,0,0-4.025,1.25,9.051,9.051,0,0,0-2.576,2.93,7.981,7.981,0,0,0-.924-1.53,6.9,6.9,0,0,0-2.325-1.925,8.07,8.07,0,0,0-3.7-.725A6.678,6.678,0,0,0-50.4-21.35a8.995,8.995,0,0,0-2.475,2.756V-22.1h-3.5v22h3.5V-11.356a11.5,11.5,0,0,1,1.35-4.544,6.761,6.761,0,0,1,2.15-2.3,5.131,5.131,0,0,1,2.9-.9,4.386,4.386,0,0,1,2.3.475q2.15,1.362,2.15,4.775V-.1h3.5V-13.85q0-.432-.024-.845a9.23,9.23,0,0,1,.574-1.2,6.761,6.761,0,0,1,2.15-2.3,5.131,5.131,0,0,1,2.9-.9,4.386,4.386,0,0,1,2.3.475q2.15,1.362,2.15,4.775ZM3.275-11.5A10.482,10.482,0,0,0-.2-19.35,11.257,11.257,0,0,0-8.225-22.6a11.076,11.076,0,0,0-8.125,3.375A11.076,11.076,0,0,0-19.725-11.1,10.933,10.933,0,0,0-16.35-3,11.909,11.909,0,0,0-12.7-.55a12.528,12.528,0,0,0,5,.9A10.489,10.489,0,0,0-1.95-1.475,11.2,11.2,0,0,0,2.275-6.45h-4A8.088,8.088,0,0,1-4.6-4.025a7.909,7.909,0,0,1-3.625.875A7.9,7.9,0,0,1-13.325-5a7.5,7.5,0,0,1-2.75-4.65H3.275Zm-3.7-1.15h-15.6a7.77,7.77,0,0,1,1.05-2.575A7.642,7.642,0,0,1-8.225-19.1,7.573,7.573,0,0,1-3.25-17.3,8.084,8.084,0,0,1-.425-12.65ZM40.025-11A7.95,7.95,0,0,1,37.8-5.4,7.251,7.251,0,0,1,32.275-3,7.251,7.251,0,0,1,26.75-5.4,7.95,7.95,0,0,1,24.525-11a7.95,7.95,0,0,1,2.225-5.6A7.251,7.251,0,0,1,32.275-19,7.251,7.251,0,0,1,37.8-16.6,7.95,7.95,0,0,1,40.025-11Zm3.5,11V-22h-3.5v3.757q-.294-.386-.625-.757a9.879,9.879,0,0,0-7.675-3.5A9.879,9.879,0,0,0,24.05-19a11.639,11.639,0,0,0-3.025,8A11.639,11.639,0,0,0,24.05-3,9.879,9.879,0,0,0,31.725.5,9.879,9.879,0,0,0,39.4-3q.331-.371.625-.757V0Zm18.8-17.45V-22a5.528,5.528,0,0,0-2.2-.45q-3.693,0-5.45,4.1l-.15.9V-22h-3.5V0h3.5V-11a9.566,9.566,0,0,1,1.25-4.875,6.645,6.645,0,0,1,1.625-1.9,3.652,3.652,0,0,1,2.345-.775A3.786,3.786,0,0,1,62.325-17.45Zm1.5-1.3h5.5V0h3.5V-18.75h5.45V-22h-5.45v-8.55h-3.5V-22h-5.5Zm40.7,21.55L114.975-22h-3.9l-6.6,16.95-7.1-18.1-7.1,18.1L83.675-22h-3.9L90.325,2.8l7.05-17.75Zm32.7-13.9a7.646,7.646,0,0,1-2.35,5.6,7.7,7.7,0,0,1-5.65,2.35,7.7,7.7,0,0,1-5.65-2.35,7.646,7.646,0,0,1-2.35-5.6,7.7,7.7,0,0,1,2.35-5.65,7.7,7.7,0,0,1,5.65-2.35,7.7,7.7,0,0,1,5.65,2.35A7.7,7.7,0,0,1,137.225-11.1Zm3.5,0a11.076,11.076,0,0,0-3.375-8.125,11.076,11.076,0,0,0-8.125-3.375,11.076,11.076,0,0,0-8.125,3.375,11.076,11.076,0,0,0-3.375,8.125A10.933,10.933,0,0,0,121.1-3,11.18,11.18,0,0,0,129.225.35,11.18,11.18,0,0,0,137.35-3,10.933,10.933,0,0,0,140.725-11.1Zm17.3-6.35V-22a5.528,5.528,0,0,0-2.2-.45q-3.693,0-5.45,4.1l-.15.9V-22h-3.5V0h3.5V-11a9.566,9.566,0,0,1,1.25-4.875,6.645,6.645,0,0,1,1.625-1.9,3.652,3.652,0,0,1,2.345-.775A3.786,3.786,0,0,1,158.025-17.45ZM165.775,0V-10.557L174.425,0h4.65l-9.65-11.35,9.05-10.7h-4.65l-8.05,9.9V-37.5h-3.5V0Zm20.739-3.133a4.91,4.91,0,0,1-1.886-3.017h-3.7q1.139,6.8,8.79,6.8a12.514,12.514,0,0,0,3.327-.422,9.707,9.707,0,0,0,2.828-1.271,5.851,5.851,0,0,0,2.546-5.247,5.4,5.4,0,0,0-3.4-5.174,14.767,14.767,0,0,0-3.154-1.077q-1.671-.377-3.122-.83a8.786,8.786,0,0,1-2.431-1.137,2.467,2.467,0,0,1-1-2.177,2.393,2.393,0,0,1,1.2-2.2,5.315,5.315,0,0,1,2.807-.711,5.845,5.845,0,0,1,2.773.606A3.826,3.826,0,0,1,193.8-16.55h3.751a6.749,6.749,0,0,0-2.815-4.632,9.968,9.968,0,0,0-5.319-1.318,9.067,9.067,0,0,0-5.5,1.69,5.757,5.757,0,0,0-2.3,4.963A4.824,4.824,0,0,0,182.463-13a6.16,6.16,0,0,0,2.549,1.989,16.958,16.958,0,0,0,3.143,1.077q1.671.4,3.122.88,3.439,1.12,3.439,3.213,0,3.593-4.8,3.593A6,6,0,0,1,186.514-3.133Z" transform="translate(197.425 37.5)"/>
</svg>
